<svg width="72" height="28" viewBox="0 0 72 28" fill="none" xmlns="http://www.w3.org/2000/svg">
<path d="M44.804 9.576V11.22H42.572V18H40.52V11.22H38.288V9.576H44.804ZM51.5778 16.512H48.4338L47.9298 18H45.7818L48.8298 9.576H51.2058L54.2538 18H52.0818L51.5778 16.512ZM51.0498 14.928L50.0058 11.844L48.9738 14.928H51.0498ZM58.7295 18.084C58.1135 18.084 57.5615 17.984 57.0735 17.784C56.5855 17.584 56.1935 17.288 55.8975 16.896C55.6095 16.504 55.4575 16.032 55.4415 15.48H57.6255C57.6575 15.792 57.7655 16.032 57.9495 16.2C58.1335 16.36 58.3735 16.44 58.6695 16.44C58.9735 16.44 59.2135 16.372 59.3895 16.236C59.5655 16.092 59.6535 15.896 59.6535 15.648C59.6535 15.44 59.5815 15.268 59.4375 15.132C59.3015 14.996 59.1295 14.884 58.9215 14.796C58.7215 14.708 58.4335 14.608 58.0575 14.496C57.5135 14.328 57.0695 14.16 56.7255 13.992C56.3815 13.824 56.0855 13.576 55.8375 13.248C55.5895 12.92 55.4655 12.492 55.4655 11.964C55.4655 11.18 55.7495 10.568 56.3175 10.128C56.8855 9.68 57.6255 9.456 58.5375 9.456C59.4655 9.456 60.2135 9.68 60.7815 10.128C61.3495 10.568 61.6535 11.184 61.6935 11.976H59.4735C59.4575 11.704 59.3575 11.492 59.1735 11.34C58.9895 11.18 58.7535 11.1 58.4655 11.1C58.2175 11.1 58.0175 11.168 57.8655 11.304C57.7135 11.432 57.6375 11.62 57.6375 11.868C57.6375 12.14 57.7655 12.352 58.0215 12.504C58.2775 12.656 58.6775 12.82 59.2215 12.996C59.7655 13.18 60.2055 13.356 60.5415 13.524C60.8855 13.692 61.1815 13.936 61.4295 14.256C61.6775 14.576 61.8015 14.988 61.8015 15.492C61.8015 15.972 61.6775 16.408 61.4295 16.8C61.1895 17.192 60.8375 17.504 60.3735 17.736C59.9095 17.968 59.3615 18.084 58.7295 18.084ZM68.4483 18L65.6163 14.28V18H63.5643V9.576H65.6163V13.272L68.4243 9.576H70.8363L67.5723 13.704L70.9563 18H68.4483Z" fill="#08A0F7"/>
<circle cx="14" cy="14" r="14" fill="#08A0F7"/>
<path d="M17.4458 9.4005V11.0788H15.1673V18H13.0725V11.0788H10.794V9.4005H17.4458Z" fill="white"/>
</svg>
